<?xml version="1.0" standalone="no"?>
<!DOCTYPE svg PUBLIC "-//W3C//DTD SVG 20010904//EN"
 "http://www.w3.org/TR/2001/REC-SVG-20010904/DTD/svg10.dtd">
<svg version="1.0" xmlns="http://www.w3.org/2000/svg"
 width="768.000000pt" height="768.000000pt" viewBox="0 0 768.000000 768.000000"
 preserveAspectRatio="xMidYMid meet">

<g transform="translate(0.000000,768.000000) scale(0.100000,-0.100000)"
fill="#fff" stroke="none">
<path d="M920 7384 c-11 -12 -11 -18 1 -29 8 -8 127 -57 264 -110 767 -296
1091 -420 1180 -454 247 -93 999 -382 1002 -385 4 -4 -194 -348 -209 -362 -13
-12 -904 -354 -923 -354 -6 0 -20 20 -33 43 -33 62 -137 188 -201 242 -205
175 -465 257 -714 225 -225 -28 -411 -123 -575 -294 -266 -277 -342 -663 -200
-1014 81 -199 252 -381 453 -483 125 -63 218 -87 363 -96 61 -3 112 -9 112
-14 0 -4 34 -217 75 -474 41 -257 75 -477 75 -489 0 -11 -48 -101 -106 -199
l-105 -178 -102 84 c-114 93 -310 253 -402 327 -33 27 -150 122 -260 212 -110
90 -285 232 -390 317 -104 85 -198 161 -207 169 -17 14 -18 12 -18 -24 0 -43
-21 -23 320 -299 48 -38 192 -155 320 -260 128 -104 272 -221 320 -260 47 -38
155 -126 238 -193 l152 -124 -19 -31 c-10 -18 -53 -93 -96 -167 -43 -74 -95
-162 -116 -195 l-39 -60 175 -3 c96 -1 175 -6 175 -10 0 -4 -6 -16 -14 -27
-17 -24 -146 -255 -146 -261 0 -2 114 -4 254 -4 234 0 255 -1 260 -17 5 -18
39 -219 70 -418 8 -55 29 -185 46 -290 17 -104 49 -300 70 -435 165 -1046 154
-990 192 -990 l28 0 -6 57 c-6 54 -43 294 -174 1108 -92 576 -99 620 -125 780
-14 88 -27 170 -30 183 l-5 22 217 0 218 -1 185 -150 c102 -83 226 -184 275
-224 50 -40 138 -112 196 -160 l106 -86 -56 -112 c-79 -157 -96 -235 -95 -422
1 -132 4 -160 27 -238 104 -341 381 -599 722 -672 106 -23 284 -23 390 0 341
73 618 331 722 672 23 78 26 106 27 238 1 187 -16 265 -95 422 l-56 112 106
86 c58 48 147 120 196 160 50 40 173 141 275 224 l185 150 218 1 217 0 -5 -22
c-3 -13 -16 -95 -30 -183 -26 -160 -33 -204 -125 -780 -131 -814 -168 -1054
-174 -1107 l-6 -58 28 0 c38 0 27 -56 192 990 21 135 53 331 70 435 17 105 38
235 46 290 31 199 65 400 70 418 5 16 26 17 260 17 140 0 254 2 254 4 0 6
-129 237 -146 261 -8 11 -14 23 -14 27 0 4 79 9 175 10 l175 3 -39 60 c-21 33
-73 121 -116 195 -43 74 -86 149 -96 167 l-19 31 152 124 c83 67 191 155 238
193 48 39 192 156 320 260 128 105 272 222 320 260 341 276 320 256 320 299 0
36 -1 38 -17 24 -10 -8 -103 -84 -208 -169 -104 -85 -280 -227 -390 -317 -110
-90 -227 -185 -260 -212 -92 -74 -288 -234 -402 -327 l-102 -84 -105 178 c-58
98 -106 188 -106 199 0 12 34 232 75 489 41 257 75 470 75 474 0 5 51 11 113
14 144 9 237 33 362 96 432 219 629 710 465 1164 -79 217 -273 433 -485 540
-129 64 -328 104 -465 92 -270 -23 -496 -143 -667 -352 -34 -42 -72 -96 -85
-120 -13 -23 -27 -43 -33 -43 -19 0 -910 342 -923 354 -15 14 -213 358 -209
362 3 3 755 292 1002 385 89 34 413 158 1180 454 138 53 257 103 265 111 12
12 12 16 -3 31 -14 14 -22 15 -45 6 -15 -6 -130 -51 -257 -99 -126 -48 -662
-251 -1190 -452 -528 -201 -967 -367 -976 -369 -15 -4 -85 110 -224 365 -17
31 -36 57 -42 59 -13 5 -54 -55 -129 -189 -27 -49 -51 -88 -54 -88 -3 0 -27
39 -54 88 -75 134 -116 194 -129 189 -6 -2 -25 -28 -42 -59 -139 -255 -209
-369 -224 -365 -9 2 -448 168 -976 369 -528 201 -1054 400 -1170 443 -115 43
-227 87 -247 97 -45 22 -62 23 -78 2z m642 -1279 c376 -79 637 -364 689 -752
42 -316 -107 -648 -367 -816 -312 -202 -696 -197 -1004 13 -178 122 -311 334
-351 564 -19 112 -7 303 26 406 98 307 329 517 641 584 92 19 274 20 366 1z
m4978 -14 c285 -82 494 -286 585 -571 33 -103 45 -294 26 -406 -40 -230 -173
-442 -351 -564 -308 -210 -692 -215 -1004 -13 -352 227 -476 719 -279 1108
122 241 311 390 583 456 105 26 333 20 440 -10z m-2320 -693 c413 -707 459
-785 824 -1423 360 -627 684 -1199 692 -1218 6 -16 -127 -17 -1896 -17 -1769
0 -1902 1 -1896 17 10 26 644 1138 1042 1829 249 430 850 1453 854 1453 3 0
174 -288 380 -641z m-1113 545 c-522 -925 -1440 -2508 -1454 -2508 -4 0 -19
77 -34 170 -15 94 -45 286 -68 427 -22 142 -41 263 -41 270 0 8 36 22 93 35
109 27 255 95 335 157 70 54 188 175 229 236 49 73 101 183 130 277 25 81 27
102 27 253 -1 172 0 167 -61 353 -3 9 0 17 6 17 6 0 61 20 123 44 268 104 711
274 716 275 2 1 1 -2 -1 -6z m1663 -70 c141 -53 286 -109 518 -199 62 -24 117
-44 123 -44 6 0 9 -8 6 -17 -61 -186 -60 -181 -61 -353 0 -151 2 -172 27 -253
29 -94 81 -204 130 -277 41 -61 159 -182 229 -236 80 -62 226 -130 335 -157
57 -13 93 -27 93 -35 0 -7 -19 -128 -41 -270 -23 -141 -53 -333 -68 -427 -15
-93 -31 -168 -37 -166 -19 10 -937 1593 -1451 2503 -2 5 8 3 24 -3 15 -6 93
-35 173 -66z m524 -3731 c-8 -8 -130 -107 -528 -428 -56 -45 -116 -95 -135
-111 l-33 -28 -75 77 c-193 198 -422 298 -683 298 -261 0 -490 -100 -683 -298
l-75 -77 -33 28 c-19 16 -79 66 -135 111 -398 321 -520 420 -528 428 -6 4 649
8 1454 8 805 0 1460 -4 1454 -8z m-1209 -296 c190 -57 395 -204 462 -331 9
-16 20 -32 24 -35 5 -3 26 -44 48 -91 127 -270 111 -585 -40 -843 -57 -97
-202 -239 -299 -293 -164 -92 -362 -134 -532 -113 -114 14 -249 57 -348 113
-97 54 -242 196 -299 293 -151 258 -167 573 -40 843 22 47 43 88 48 91 4 3 15
19 24 35 44 83 172 196 299 264 144 76 258 102 433 97 104 -3 148 -9 220 -30z"/>
</g>
</svg>
